#!OML:ASF H:\Pregnant\Project 1\Capture day 1\Session 1\femalepreg.ASF
:FULLY-SPECIFIED
:DEGREES
273
root 7.512 15.7671 24.9239 26.4442 -83.5798 -10.0087
lowerback -21.5489 1.16908 -0.678651
upperback -6.08556 1.33796 -0.724896
thorax 5.40043 0.485252 -0.0652405
lowerneck -22.0511 2.75243 4.07858
upperneck 25.6185 1.43135 2.61602
head 12.1484 1.32311 0.527434
rclavicle -1.55052e-014 3.18055e-015
rhumerus -15.1682 -11.3567 -50.468
rradius 119.948
rwrist -23.2707
rhand -37.1653 -21.7221
rfingers 7.12502
rthumb -10.2342 -51.4531
lclavicle -1.55052e-014 3.18055e-015
lhumerus -41.3531 -18.4783 92.4298
lradius 30.9508
lwrist 42.0271
lhand -27.6257 -4.26787
lfingers 7.12502
lthumb -1.02438 25.7094
rfemur -23.443 21.0932 13.4082
rtibia 25.2887
rfoot -14.6799 -22.503
rtoes -6.90965
lfemur 0 0 0
ltibia 0
lfoot 0 0
ltoes 0
274
root 7.51403 15.7674 24.9228 26.4211 -83.5573 -9.97724
lowerback -21.502 1.16015 -0.700065
upperback -6.12855 1.32837 -0.735458
thorax 5.32943 0.479919 -0.0678619
lowerneck -21.9723 2.76367 4.09412
upperneck 25.6292 1.42318 2.68344
head 12.1372 1.32905 0.547762
rclavicle -2.09718e-014 2.26615e-014
rhumerus -15.9624 -10.7335 -50.837
rradius 119.301
rwrist -21.6985
rhand -37.4611 -20.4117
rfingers 7.12502
rthumb -10.5194 -50.1285
lclavicle -2.09718e-014 2.26615e-014
lhumerus -41.3744 -18.3819 92.3856
lradius 30.9166
lwrist 41.9385
lhand -27.606 -4.29845
lfingers 7.12502
lthumb -1.00535 25.6789
rfemur -23.4584 21.0947 13.4067
rtibia 25.2925
rfoot -14.6887 -22.5125
rtoes -6.83171
lfemur 0 0 0
ltibia 0
lfoot 0 0
ltoes 0
275
root 7.5159 15.7676 24.9217 26.3948 -83.5363 -9.94513
lowerback -21.4546 1.15919 -0.716119
upperback -6.17089 1.32892 -0.758565
thorax 5.25937 0.479536 -0.0844056
lowerneck -21.8967 2.7687 4.10881
upperneck 25.6399 1.4009 2.76805
head 12.1266 1.33088 0.572376
rclavicle -2.09221e-014 9.54166e-015
rhumerus -16.8323 -10.0142 -51.2497
rradius 118.534
rwrist -19.6692
rhand -37.9276 -18.9684
rfingers 7.12502
rthumb -10.9694 -48.6618
lclavicle -2.09221e-014 9.54166e-015
lhumerus -41.39 -18.3013 92.3317
lradius 30.8732
lwrist 41.8544
lhand -27.5812 -4.33188
lfingers 7.12502
lthumb -0.981458 25.6456
rfemur -23.4734 21.082 13.409
rtibia 25.3004
rfoot -14.691 -22.5135
rtoes -6.79376
lfemur 0 0 0
ltibia 0
lfoot 0 0
ltoes 0
276
root 7.51757 15.7678 24.9204 26.3553 -83.5177 -9.89866
lowerback -21.411 1.16575 -0.724362
upperback -6.21126 1.33887 -0.799644
thorax 5.19405 0.483695 -0.122224
lowerneck -21.8311 2.77077 4.13347
upperneck 25.6524 1.36362 2.87306
head 12.1188 1.32977 0.60068
rclavicle -1.51573e-014 -2.3059e-014
rhumerus -17.7668 -9.21908 -51.7274
rradius 117.649
rwrist -17.2842
rhand -38.5977 -17.4349
rfingers 7.12502
rthumb -11.6157 -47.093
lclavicle -1.51573e-014 -2.3059e-014
lhumerus -41.3507 -18.1433 92.2054
lradius 30.7628
lwrist 41.6652
lhand -27.5249 -4.38069
lfingers 7.12502
lthumb -0.92709 25.597
rfemur -23.4913 21.044 13.4139
rtibia 25.3114
rfoot -14.6926 -22.4922
rtoes -6.76994
lfemur 0 0 0
ltibia 0
lfoot 0 0
ltoes 0
277
root 7.51909 15.7679 24.919 26.2981 -83.5 -9.83328
lowerback -21.3736 1.17708 -0.730549
upperback -6.24889 1.3554 -0.850644
thorax 5.13525 0.491013 -0.170085
lowerneck -21.7694 2.76946 4.15817
upperneck 25.6605 1.31796 2.98962
head 12.1101 1.32641 0.631931
rclavicle 1.47598e-014 -4.77083e-015
rhumerus -18.7487 -8.36202 -52.2651
rradius 116.647
rwrist -14.6596
rhand -39.4745 -15.7997
rfingers 7.12502
rthumb -12.4612 -45.4082
lclavicle 1.47598e-014 -4.77083e-015
lhumerus -41.3212 -18.0386 92.0938
lradius 30.6678
lwrist 41.5279
lhand -27.4787 -4.41576
lfingers 7.12502
lthumb -0.882451 25.5622
rfemur -23.5111 21.0101 13.4158
rtibia 25.3232
rfoot -14.6911 -22.4781
rtoes -6.76136
lfemur 0 0 0
ltibia 0
lfoot 0 0
ltoes 0
278
root 7.52049 15.768 24.9174 26.2595 -83.4821 -9.78748
lowerback -21.3407 1.19162 -0.729631
upperback -6.28272 1.37533 -0.90937
thorax 5.08322 0.499995 -0.229325
lowerneck -21.7132 2.76762 4.18595
upperneck 25.6653 1.26707 3.11654
head 12.1013 1.32237 0.665743
rclavicle 2.84759e-014 -2.38542e-015
rhumerus -19.7604 -7.45331 -52.8681
rradius 115.531
rwrist -11.9155
rhand -40.5459 -14.0383
rfingers 7.12502
rthumb -13.494 -43.5811
lclavicle 2.84759e-014 -2.38542e-015
lhumerus -41.289 -17.9608 91.9816
lradius 30.5741
lwrist 41.4192
lhand -27.4414 -4.44206
lfingers 7.12502
lthumb -0.846414 25.536
rfemur -23.5291 20.9615 13.4243
rtibia 25.3345
rfoot -14.688 -22.4521
rtoes -6.77309
lfemur 0 0 0
ltibia 0
lfoot 0 0
ltoes 0
279
root 7.52184 15.768 24.9157 26.2483 -83.4641 -9.77041
lowerback -21.313 1.20339 -0.735041
upperback -6.31209 1.39277 -0.960355
thorax 5.03843 0.507827 -0.277172
lowerneck -21.6588 2.76579 4.20156
upperneck 25.6652 1.22062 3.24467
head 12.0908 1.31922 0.702728
rclavicle 3.23025e-015 -1.59028e-014
rhumerus -20.7787 -6.49381 -53.5182
rradius 114.305
rwrist -9.1514
rhand -41.7986 -12.2618
rfingers 7.12502
rthumb -14.7011 -41.7205
lclavicle 3.23025e-015 -1.59028e-014
lhumerus -41.2694 -17.9257 91.9035
lradius 30.5024
lwrist 41.3775
lhand -27.4264 -4.45397
lfingers 7.12502
lthumb -0.831921 25.5242
rfemur -23.5438 20.9255 13.4359
rtibia 25.343
rfoot -14.6832 -22.4363
rtoes -6.79152
lfemur 0 0 0
ltibia 0
lfoot 0 0
ltoes 0
280
root 7.52316 15.7681 24.9139 26.2443 -83.4459 -9.76039
lowerback -21.2905 1.21247 -0.743436
upperback -6.33885 1.40713 -1.0061
thorax 4.99891 0.514168 -0.318384
lowerneck -21.6004 2.76518 4.20264
upperneck 25.6587 1.18146 3.37437
head 12.0769 1.31798 0.743762
rclavicle 3.96575e-014 1.78906e-014
rhumerus -21.7986 -5.49791 -54.2218
rradius 112.97
rwrist -6.44607
rhand -43.1494 -10.442
rfingers 7.12502
rthumb -16.0022 -39.8011
lclavicle 3.96575e-014 1.78906e-014
lhumerus -41.2454 -17.8857 91.8325
lradius 30.4292
lwrist 41.347
lhand -27.4242 -4.4595
lfingers 7.12502
lthumb -0.829808 25.5186
rfemur -23.5557 20.8976 13.447
rtibia 25.3467
rfoot -14.6806 -22.4256
rtoes -6.79665
lfemur 0 0 0
ltibia 0
lfoot 0 0
ltoes 0
281
root 7.52445 15.768 24.9119 26.2735 -83.4268 -9.78571
lowerback -21.2705 1.22101 -0.750676
upperback -6.36297 1.42042 -1.04706
thorax 4.96345 0.520051 -0.355331
lowerneck -21.5368 2.76385 4.18646
upperneck 25.6449 1.14685 3.50919
head 12.0588 1.31758 0.790123
rclavicle 4.07012e-014 -1.98785e-014
rhumerus -22.8158 -4.47564 -54.9783
rradius 111.528
rwrist -3.85967
rhand -44.5227 -8.65864
rfingers 7.12502
rthumb -17.3244 -37.9065
lclavicle 4.07012e-014 -1.98785e-014
lhumerus -41.2367 -17.8867 91.7907
lradius 30.3779
lwrist 41.3715
lhand -27.4404 -4.45102
lfingers 7.12502
lthumb -0.845462 25.5271
rfemur -23.5627 20.8877 13.4603
rtibia 25.3451
rfoot -14.6803 -22.4266
rtoes -6.77562
lfemur 0 0 0
ltibia 0
lfoot 0 0
ltoes 0
282
root 7.5257 15.768 24.9099 26.3274 -83.4083 -9.83611
lowerback -21.2541 1.22993 -0.755695
upperback -6.3849 1.43376 -1.08631
thorax 4.93231 0.525978 -0.391621
lowerneck -21.47 2.76305 4.15948
upperneck 25.626 1.11644 3.64751
head 12.0379 1.31831 0.840121
rclavicle -3.08116e-015 3.57812e-015
rhumerus -23.8295 -3.44128 -55.7964
rradius 109.986
rwrist -1.43568
rhand -45.8165 -6.96113
rfingers 7.12502
rthumb -18.5692 -36.0948
lclavicle -3.08116e-015 3.57812e-015
lhumerus -41.223 -17.8848 91.749
lradius 30.3234
lwrist 41.3959
lhand -27.4684 -4.44968
lfingers 7.12502
lthumb -0.872446 25.5283
rfemur -23.5669 20.8779 13.4765
rtibia 25.3389
rfoot -14.6835 -22.422
rtoes -6.73615
lfemur 0 0 0
ltibia 0
lfoot 0 0
ltoes 0
283
root 7.52687 15.768 24.9077 26.4083 -83.3903 -9.9154
lowerback -21.2408 1.24151 -0.758481
upperback -6.40391 1.45038 -1.12615
thorax 4.90594 0.533555 -0.428943
lowerneck -21.3982 2.76397 4.13327
upperneck 25.599 1.09042 3.7817
head 12.013 1.32034 0.888902
rclavicle 6.55989e-015 2.42517e-014
rhumerus -24.8387 -2.41719 -56.6768
rradius 108.342
rwrist 0.786227
rhand -46.9686 -5.38054
rfingers 7.12502
rthumb -19.6771 -34.4047
lclavicle 6.55989e-015 2.42517e-014
lhumerus -41.2231 -17.9277 91.7285
lradius 30.2917
lwrist 41.4675
lhand -27.5175 -4.44586
lfingers 7.12502
lthumb -0.919872 25.5319
rfemur -23.5668 20.8601 13.4991
rtibia 25.3291
rfoot -14.6847 -22.4074
rtoes -6.70536
lfemur 0 0 0
ltibia 0
lfoot 0 0
ltoes 0
